<svg width="1440" height="952" viewBox="0 0 1440 952" fill="none" xmlns="http://www.w3.org/2000/svg">
<g clip-path="url(#clip0_257_46534)">
<rect width="1440" height="952" fill="#000"/>
<circle cx="776.02" cy="610.314" r="2.95259" fill="white" fill-opacity="0.3"/>
<circle cx="1321.19" cy="498.565" r="2.95259" fill="white" fill-opacity="0.3"/>
<circle cx="575.055" cy="786.746" r="2.95259" fill="white" fill-opacity="0.15"/>
<circle cx="1342.12" cy="825.349" r="4.42888" fill="white" fill-opacity="0.1"/>
<circle cx="639.989" cy="940.035" r="4.42888" fill="white" fill-opacity="0.1"/>
<circle cx="683.98" cy="684.076" r="4.42888" fill="white" fill-opacity="0.3"/>
<circle cx="8.32134" cy="43.3449" r="4.42888" fill="white" fill-opacity="0.7"/>
<circle cx="807.2" cy="342.709" r="1.47533" fill="white" fill-opacity="0.15"/>
<circle cx="326.155" cy="267.399" r="1.47533" fill="white" fill-opacity="0.1"/>
<circle cx="757.325" cy="765.069" r="1.47533" fill="white" fill-opacity="0.15"/>
<circle cx="337.205" cy="163.957" r="1.47533" fill="white" fill-opacity="0.3"/>
<circle cx="119.927" cy="247.906" r="1.47533" fill="white" fill-opacity="0.1"/>
<circle cx="994.362" cy="101.285" r="1.47533" fill="white" fill-opacity="0.6"/>
<circle cx="383.293" cy="240.19" r="1.47533" fill="white" fill-opacity="0.6"/>
<circle cx="219.19" cy="901.719" r="1.47533" fill="white" fill-opacity="0.6"/>
<circle cx="585.199" cy="548.319" r="1.47533" fill="white" fill-opacity="0.1"/>
<circle cx="972.385" cy="710.294" r="1.47533" fill="white" fill-opacity="0.6"/>
<circle cx="18.9584" cy="905.423" r="1.47533" fill="white" fill-opacity="0.6"/>
<circle cx="191.855" cy="665.73" r="1.47533" fill="white" fill-opacity="0.1"/>
<circle cx="265.202" cy="881.564" r="1.47533" fill="white" fill-opacity="0.3"/>
<circle cx="474.371" cy="31.9224" r="1.47533" fill="white" fill-opacity="0.1"/>
<circle cx="19.4537" cy="934.646" r="1.47533" fill="white" fill-opacity="0.1"/>
<circle cx="70.3375" cy="408.487" r="1.47533" fill="white" fill-opacity="0.1"/>
<circle cx="973.356" cy="460.637" r="1.47533" fill="white" fill-opacity="0.15"/>
<circle cx="977.687" cy="158.172" r="1.47533" fill="white" fill-opacity="0.15"/>
<circle cx="950.427" cy="849.178" r="1.47533" fill="white" fill-opacity="0.3"/>
<circle cx="1079.44" cy="388.46" r="1.47533" fill="white" fill-opacity="0.7"/>
<circle cx="1306.45" cy="104.545" r="1.47533" fill="white" fill-opacity="0.1"/>
<circle cx="710.591" cy="28.8667" r="1.47533" fill="white" fill-opacity="0.1"/>
<circle cx="1356.27" cy="462.246" r="1.47533" fill="white" fill-opacity="0.1"/>
<circle cx="160.721" cy="607.57" r="1.47533" fill="white" fill-opacity="0.15"/>
<circle cx="1254.98" cy="183.043" r="1.47533" fill="white" fill-opacity="0.15"/>
<circle cx="1188.55" cy="113.189" r="1.47533" fill="white" fill-opacity="0.3"/>
<circle cx="1327.57" cy="454.837" r="1.47533" fill="white" fill-opacity="0.3"/>
<circle cx="326.803" cy="766.345" r="1.47533" fill="white" fill-opacity="0.3"/>
<circle cx="1274.93" cy="585.248" r="1.47533" fill="white" fill-opacity="0.1"/>
<circle cx="60.03" cy="46.0539" r="1.47533" fill="white" fill-opacity="0.3"/>
<circle cx="324.814" cy="220.079" r="1.47533" fill="white" fill-opacity="0.15"/>
<circle cx="406.365" cy="618.871" r="1.47533" fill="white" fill-opacity="0.8"/>
<circle cx="780.653" cy="520.171" r="1.47533" fill="white" fill-opacity="0.3"/>
<circle cx="242.576" cy="797.903" r="1.47533" fill="white" fill-opacity="0.3"/>
<circle cx="871.837" cy="665.736" r="1.47533" fill="white" fill-opacity="0.15"/>
<path d="M787.146 100.652L787.772 102.979L790.099 103.605L787.772 104.231L787.146 106.558L786.52 104.231L784.193 103.605L786.52 102.979L787.146 100.652Z" fill="white" fill-opacity="0.8"/>
<path d="M683.637 329.114L684.263 331.44L686.59 332.066L684.263 332.692L683.637 335.019L683.011 332.692L680.684 332.066L683.011 331.44L683.637 329.114Z" fill="white" fill-opacity="0.1"/>
<g opacity="0.4">
<mask id="mask0_257_46534" style="mask-type:alpha" maskUnits="userSpaceOnUse" x="-1" y="0" width="1441" height="1440">
<line x1="106.582" y1="1.1137e-08" x2="106.582" y2="1440" stroke="white" stroke-width="0.509569"/>
<line x1="229.313" y1="1.1137e-08" x2="229.313" y2="1440" stroke="white" stroke-width="0.509569"/>
<line x1="352.053" y1="1.1137e-08" x2="352.053" y2="1440" stroke="white" stroke-width="0.509569"/>
<line x1="474.784" y1="1.1137e-08" x2="474.784" y2="1440" stroke="white" stroke-width="0.509569"/>
<line x1="597.519" y1="1.1137e-08" x2="597.519" y2="1440" stroke="white" stroke-width="0.509569"/>
<line x1="720.255" y1="1.1137e-08" x2="720.255" y2="1440" stroke="white" stroke-width="0.509569"/>
<line x1="842.985" y1="1.1137e-08" x2="842.985" y2="1440" stroke="white" stroke-width="0.509569"/>
<line x1="965.72" y1="1.1137e-08" x2="965.72" y2="1440" stroke="white" stroke-width="0.509569"/>
<line x1="1088.45" y1="1.1137e-08" x2="1088.45" y2="1440" stroke="white" stroke-width="0.509569"/>
<line x1="1211.19" y1="1.1137e-08" x2="1211.19" y2="1440" stroke="white" stroke-width="0.509569"/>
<line x1="1333.92" y1="1.1137e-08" x2="1333.92" y2="1440" stroke="white" stroke-width="0.509569"/>
<line x1="1440" y1="106.585" x2="-9.53897e-05" y2="106.585" stroke="white" stroke-width="0.509569"/>
<line x1="1440" y1="229.319" x2="-0.000133537" y2="229.319" stroke="white" stroke-width="0.509569"/>
<line x1="1440" y1="352.053" x2="-0.000133537" y2="352.053" stroke="white" stroke-width="0.509569"/>
<line x1="1440" y1="474.787" x2="-0.000133537" y2="474.787" stroke="white" stroke-width="0.509569"/>
<line x1="1440" y1="597.52" x2="-0.000133537" y2="597.52" stroke="white" stroke-width="0.509569"/>
<line x1="1440" y1="720.254" x2="-0.000133537" y2="720.254" stroke="white" stroke-width="0.509569"/>
<line x1="1440" y1="842.988" x2="-0.000133537" y2="842.988" stroke="white" stroke-width="0.509569"/>
</mask>
<g mask="url(#mask0_257_46534)">
<g filter="url(#filter0_f_257_46534)">
<ellipse cx="695.105" cy="741.613" rx="665.194" ry="557.899" fill="url(#paint0_linear_257_46534)"/>
</g>
</g>
</g>
<g filter="url(#filter1_f_257_46534)">
</g>
</g>
<defs>
<filter id="filter0_f_257_46534" x="-286.43" y="-132.626" width="1963.07" height="1748.48" filterUnits="userSpaceOnUse" color-interpolation-filters="sRGB">
<feFlood flood-opacity="0" result="BackgroundImageFix"/>
<feBlend mode="normal" in="SourceGraphic" in2="BackgroundImageFix" result="shape"/>
<feGaussianBlur stdDeviation="158.17" result="effect1_foregroundBlur_257_46534"/>
</filter>
<filter id="filter1_f_257_46534" x="535.929" y="-1194.36" width="1974.14" height="1978.71" filterUnits="userSpaceOnUse" color-interpolation-filters="sRGB">
<feFlood flood-opacity="0" result="BackgroundImageFix"/>
<feBlend mode="normal" in="SourceGraphic" in2="BackgroundImageFix" result="shape"/>
<feGaussianBlur stdDeviation="70.9983" result="effect1_foregroundBlur_257_46534"/>
</filter>
<linearGradient id="paint0_linear_257_46534" x1="695.105" y1="183.715" x2="695.105" y2="1299.51" gradientUnits="userSpaceOnUse">
<stop stop-color="white" stop-opacity="0"/>
<stop offset="0.215" stop-color="white" stop-opacity="0.5"/>
<stop offset="0.45" stop-color="white" stop-opacity="0"/>
</linearGradient>
<clipPath id="clip0_257_46534">
<rect width="1440" height="952" fill="white"/>
</clipPath>
</defs>
</svg>
