<svg xmlns="http://www.w3.org/2000/svg" viewBox="0 0 100 100">
  <rect x="2.45" y="2.57" width="95" height="95" rx="28" ry="28" fill="none" stroke="#fff" stroke-miterlimit="10" stroke-width=".5"/>
  <g fill="#fff">
    <path d="m17.51 19.2 65.31.11c.83 0 1.38.8 1.04 1.5l-4 8.22c-.19.38-.59.63-1.04.62l-22.66-.05c-.63 0-1.14.47-1.14 1.06v5.51l-.04 14.52c0 .59-.51 1.06-1.14 1.06h-5.69c-.63-.01-1.14-.49-1.14-1.07l.04-20.03c0-.59-.51-1.06-1.14-1.06l-22.78-.04c-.45 0-.86-.25-1.04-.63l-4.6-9.72h.05Z"/>
    <path d="m75.42 35.31-4.29 8.26c-.13.24-.39.39-.68.39H39.73c-.54 0-.91.52-.68.98l2.13 4.42c.12.25.39.41.69.41h25.41c.54 0 .91.52.68.98L51.25 85.27c-.27.55-1.1.55-1.37 0l-9.6-19.8c-.22-.46.14-.98.68-.98h7.15c.3 0 .57.16.69.42l.88 1.85c.26.54 1.08.56 1.36.02l3.33-6.35c.24-.46-.12-1-.67-1H37.81c-.3 0-.56-.16-.68-.41L25.64 35.28c-.22-.46.14-.98.68-.98h48.43c.55 0 .92.54.68 1Z"/>
  </g>
</svg>
